<?xml version="1.0" standalone="no"?>
<!DOCTYPE svg PUBLIC "-//W3C//DTD SVG 1.0//EN" "http://www.w3.org/TR/2001/REC-SVG-20010904/DTD/svg10.dtd">
<svg xmlns="http://www.w3.org/2000/svg" xmlns:xlink="http://www.w3.org/1999/xlink" id="body_1" width="41" height="39">

<g transform="matrix(0.37990093 0 0 0.37990093 0.09536507 -0)">
    <path transform="matrix(1 0 0 1 -85.46042 -32.54374)"  d="M152.66458 99.48333C 152.66458 90.20438 149.38397 82.28429 142.82275 75.72307C 136.26155 69.16186 128.34146 65.88125 119.0625 65.88125C 109.78354 65.88125 101.86345 69.16186 95.30224 75.72307C 88.74103 82.28429 85.46042 90.20438 85.46042 99.48333C 85.46042 108.76229 88.74103 116.68238 95.30224 123.24359C 101.86345 129.80481 109.78354 133.08542 119.0625 133.08542C 128.34146 133.08542 136.26155 129.80481 142.82275 123.24359C 149.38397 116.68238 152.66458 108.76229 152.66458 99.48333" stroke="none" fill="#DC143C" fill-rule="nonzero" fill-opacity="0.49803922" />
	<g transform="matrix(1 0 0 1 -85.46042 -32.54374)">
	</g>
    <path transform="matrix(1 0 0 1 -85.46042 -32.54374)"  d="M192.88124 101.6C 192.88124 92.321045 189.60063 84.400955 183.03941 77.83974C 176.47821 71.27853 168.55814 67.997925 159.27916 67.99792C 150.00021 67.997925 142.08012 71.27853 135.5189 77.83974C 128.95769 84.400955 125.67708 92.321045 125.67708 101.6C 125.67708 110.87896 128.95769 118.79904 135.5189 125.36026C 142.08012 131.92148 150.00021 135.20209 159.27916 135.20209C 168.55814 135.20209 176.47821 131.92148 183.03941 125.36026C 189.60063 118.79904 192.88124 110.87896 192.88124 101.6" stroke="none" fill="#008080" fill-rule="nonzero" fill-opacity="0.49803922" />
	<g transform="matrix(1 0 0 1 -85.46042 -32.54374)">
	</g>
    <path transform="matrix(1 0 0 1 -85.46042 -32.54374)"  d="M171.97916 66.14582C 171.97916 56.866863 168.69855 48.946777 162.13733 42.38556C 155.57613 35.82435 147.65604 32.54374 138.37708 32.54374C 129.09811 32.54374 121.17803 35.82435 114.61681 42.38556C 108.0556 48.946777 104.774994 56.866863 104.774994 66.14582C 104.774994 75.424774 108.0556 83.344864 114.61681 89.90608C 121.17803 96.4673 129.09811 99.74791 138.37708 99.7479C 147.65604 99.74791 155.57613 96.4673 162.13733 89.90608C 168.69855 83.344864 171.97916 75.424774 171.97916 66.14582" stroke="none" fill="#000080" fill-rule="nonzero" fill-opacity="0.49803922" />
	<g transform="matrix(1 0 0 1 -85.46042 -32.54374)">
	</g>
	<g transform="matrix(0.7606808 0 0 1.3146119 -85.46042 -32.54374)">
		<text x="203.93454" y="68.59529" style="fill:#FFD700;font-family:Baskerville Old Face;font-weight:bold;" font-size="19.576">

		</text>
	</g>
</g>
</svg>